name Walk4.mot
datacolumns 19
datarows 20
range 3.16300000 3.18200000
endheader

                time	   L_ground_force_vx	   L_ground_force_vy	   L_ground_force_vz	   L_ground_force_px	   L_ground_force_py	   L_ground_force_pz	   R_ground_force_vx	   R_ground_force_vy	   R_ground_force_vz	   R_ground_force_px	   R_ground_force_py	   R_ground_force_pz	   L_ground_torque_x	   L_ground_torque_y	   L_ground_torque_z	   R_ground_torque_x	   R_ground_torque_y	   R_ground_torque_z	
          3.16300000	          0.00000000	          0.00000000	          0.00000000	          0.00000000	          0.00000000	          0.00000000	          0.30438348	        744.37896479	         59.35545574	         -0.30056037	          0.00000000	         -0.09795511	          0.00000000	          0.00000000	          0.00000000	          0.00000000	          2.56266270	          0.00000000	
          3.16400000	          0.00000000	          0.00000000	          0.00000000	          0.00000000	          0.00000000	          0.00000000	          0.72609281	        745.35104289	         59.47510793	         -0.30030293	          0.00000000	         -0.09798052	          0.00000000	          0.00000000	          0.00000000	          0.00000000	          2.55416101	          0.00000000	
          3.16500000	          0.00000000	          0.00000000	          0.00000000	          0.00000000	          0.00000000	          0.00000000	          1.16574017	        746.29029677	         59.59600244	         -0.30004126	          0.00000000	         -0.09795566	          0.00000000	          0.00000000	          0.00000000	          0.00000000	          2.56320968	          0.00000000	
          3.16600000	          0.00000000	          0.00000000	          0.00000000	          0.00000000	          0.00000000	          0.00000000	          1.63413684	        747.22055432	         59.71844700	         -0.29977898	          0.00000000	         -0.09791206	          0.00000000	          0.00000000	          0.00000000	          0.00000000	          2.58237763	          0.00000000	
          3.16700000	          0.00000000	          0.00000000	          0.00000000	          0.00000000	          0.00000000	          0.00000000	          2.13469398	        748.15481017	         59.84077751	         -0.29952046	          0.00000000	         -0.09787379	          0.00000000	          0.00000000	          0.00000000	          0.00000000	          2.60417327	          0.00000000	
          3.16800000	          0.00000000	          0.00000000	          0.00000000	          0.00000000	          0.00000000	          0.00000000	          2.65577003	        749.09995210	         59.96526957	         -0.29927018	          0.00000000	         -0.09785418	          0.00000000	          0.00000000	          0.00000000	          0.00000000	          2.62366967	          0.00000000	
          3.16900000	          0.00000000	          0.00000000	          0.00000000	          0.00000000	          0.00000000	          0.00000000	          3.17318079	        750.06480589	         60.10058299	         -0.29902695	          0.00000000	         -0.09786604	          0.00000000	          0.00000000	          0.00000000	          0.00000000	          2.63869476	          0.00000000	
          3.17000000	          0.00000000	          0.00000000	          0.00000000	          0.00000000	          0.00000000	          0.00000000	          3.66379742	        751.03820205	         60.25877691	         -0.29878750	          0.00000000	         -0.09791654	          0.00000000	          0.00000000	          0.00000000	          0.00000000	          2.64944281	          0.00000000	
          3.17100000	          0.00000000	          0.00000000	          0.00000000	          0.00000000	          0.00000000	          0.00000000	          4.11833772	        751.99670429	         60.44742581	         -0.29855910	          0.00000000	         -0.09799773	          0.00000000	          0.00000000	          0.00000000	          0.00000000	          2.65705338	          0.00000000	
          3.17200000	          0.00000000	          0.00000000	          0.00000000	          0.00000000	          0.00000000	          0.00000000	          4.54360805	        752.93718657	         60.66033807	         -0.29835561	          0.00000000	         -0.09808887	          0.00000000	          0.00000000	          0.00000000	          0.00000000	          2.65944904	          0.00000000	
          3.17300000	          0.00000000	          0.00000000	          0.00000000	          0.00000000	          0.00000000	          0.00000000	          4.95563504	        753.86405650	         60.87667560	         -0.29818007	          0.00000000	         -0.09816107	          0.00000000	          0.00000000	          0.00000000	          0.00000000	          2.64937789	          0.00000000	
          3.17400000	          0.00000000	          0.00000000	          0.00000000	          0.00000000	          0.00000000	          0.00000000	          5.37034613	        754.76330469	         61.07323251	         -0.29802140	          0.00000000	         -0.09819499	          0.00000000	          0.00000000	          0.00000000	          0.00000000	          2.61986817	          0.00000000	
          3.17500000	          0.00000000	          0.00000000	          0.00000000	          0.00000000	          0.00000000	          0.00000000	          5.79478113	        755.62153816	         61.23856124	         -0.29786199	          0.00000000	         -0.09819880	          0.00000000	          0.00000000	          0.00000000	          0.00000000	          2.57145863	          0.00000000	
          3.17600000	          0.00000000	          0.00000000	          0.00000000	          0.00000000	          0.00000000	          0.00000000	          6.22768100	        756.46464673	         61.37744059	         -0.29768853	          0.00000000	         -0.09818427	          0.00000000	          0.00000000	          0.00000000	          0.00000000	          2.51371206	          0.00000000	
          3.17700000	          0.00000000	          0.00000000	          0.00000000	          0.00000000	          0.00000000	          0.00000000	          6.67178758	        757.35230837	         61.50506754	         -0.29750341	          0.00000000	         -0.09813967	          0.00000000	          0.00000000	          0.00000000	          0.00000000	          2.46069312	          0.00000000	
          3.17800000	          0.00000000	          0.00000000	          0.00000000	          0.00000000	          0.00000000	          0.00000000	          7.13795055	        758.33209374	         61.63467922	         -0.29731570	          0.00000000	         -0.09805352	          0.00000000	          0.00000000	          0.00000000	          0.00000000	          2.42557259	          0.00000000	
          3.17900000	          0.00000000	          0.00000000	          0.00000000	          0.00000000	          0.00000000	          0.00000000	          7.63294252	        759.41640995	         61.77002345	         -0.29712209	          0.00000000	         -0.09794335	          0.00000000	          0.00000000	          0.00000000	          0.00000000	          2.41606405	          0.00000000	
          3.18000000	          0.00000000	          0.00000000	          0.00000000	          0.00000000	          0.00000000	          0.00000000	          8.15054394	        760.58551520	         61.91042598	         -0.29691113	          0.00000000	         -0.09784171	          0.00000000	          0.00000000	          0.00000000	          0.00000000	          2.42954910	          0.00000000	
          3.18100000	          0.00000000	          0.00000000	          0.00000000	          0.00000000	          0.00000000	          0.00000000	          8.67909015	        761.79497961	         62.05523658	         -0.29668151	          0.00000000	         -0.09777157	          0.00000000	          0.00000000	          0.00000000	          0.00000000	          2.45372139	          0.00000000	
          3.18200000	          0.00000000	          0.00000000	          0.00000000	          0.00000000	          0.00000000	          0.00000000	          9.21095134	        762.99651478	         62.20020464	         -0.29644669	          0.00000000	         -0.09774644	          0.00000000	          0.00000000	          0.00000000	          0.00000000	          2.47462792	          0.00000000	
